PathFileType	4	(X/Y/Z)	Patient4_TMGait_0pt4_02_right_08.trc.trc
DataRate	CameraRate	NumFrames	NumMarkers	Units	OrigDataRate	OrigDataStartFrame	OrigNumFrames
74.866310160428	74.866310160428	5	33	mm	74.866310160428	71	       141
Frame#	Time	Sacral			L.Shoulder			Chest			R.Shoulder			Neck			R.ASIS			L.ASIS			R.Thigh.Superior			R.Thigh.Lateral			R.Thigh.Inferior			R.Patella			L.Thigh.Superior			L.Thigh.Lateral			L.Thigh.Inferior			L.Patella			L.Shank.Superior			L.Shank.Lateral			L.Shank.Inferior			R.Shank.Superior			R.Shank.Lateral			R.Shank.Inferior			R.Heel			R.Midfoot.Superior			R.Midfoot.Lateral			R.Toe			L.Heel			L.Midfoot.Lateral			L.Midfoot.Superior			L.Toe			L.Elbow			L.Wrist			R.Elbow			R.Wrist			
		X1	Y1	Z1	X2	Y2	Z2	X3	Y3	Z3	X4	Y4	Z4	X5	Y5	Z5	X6	Y6	Z6	X7	Y7	Z7	X8	Y8	Z8	X9	Y9	Z9	X10	Y10	Z10	X11	Y11	Z11	X12	Y12	Z12	X13	Y13	Z13	X14	Y14	Z14	X15	Y15	Z15	X16	Y16	Z16	X17	Y17	Z17	X18	Y18	Z18	X19	Y19	Z19	X20	Y20	Z20	X21	Y21	Z21	X22	Y22	Z22	X23	Y23	Z23	X24	Y24	Z24	X25	Y25	Z25	X26	Y26	Z26	X27	Y27	Z27	X28	Y28	Z28	X29	Y29	Z29	X30	Y30	Z30	X31	Y31	Z31	X32	Y32	Z32	X33	Y33	Z33	

71	11.045000000000	889.055830989085	1004.265898808355	526.929336133645	1030.815634158645	1426.764848668368	308.256488124306	1165.136549269542	1361.402569722095	445.473573932509	1119.588993826174	1440.535850040768	630.575797881365	1053.433265452775	1491.536298462946	460.397244021165	1132.199414760913	937.719964494924	604.243355489835	1074.384345793735	958.188787369437	335.241119194158	1131.055001622102	725.424572460991	574.591730517722	1037.878629763248	628.194965145765	647.266107949182	1090.090236479885	565.871350060911	559.871742005761	1073.347368813176	481.489678231446	565.850597078868	1154.004477820014	770.807186403807	358.248528035798	1092.519565766156	640.821477112246	293.528826358033	1200.574785456748	583.027427805322	345.383754575456	1221.252072779475	515.363006063294	344.084980620370	1201.916685221566	441.748308901228	335.974791768758	1125.220787110751	315.393004157622	292.206146575578	1209.652512307931	212.145347446383	343.222475445422	1037.948419927608	396.032377023701	576.251913766737	962.927493156641	299.358588325424	645.966939068152	987.092111442827	201.743177293653	577.057258117429	838.808175531736	42.566753013900	555.881568133940	1011.143350723104	95.648429598628	582.159133658795	925.311354888694	36.803994169623	627.002701136470	1132.959358587638	43.051385979662	605.316295491972	1117.114143100417	42.971094720718	390.441499391627	1185.654400221687	41.129828410407	305.875948644328	1264.214684330442	111.122681892268	322.311746937321	1392.821958433179	69.184676743581	288.142464181035	909.769161183388	1087.065287709669	231.548357590389	935.076552293573	825.789277010155	222.900439120136	1256.098471886536	1124.121169725306	738.664559026094	1489.683962300574	1155.609080887532	647.683026839174	
72	11.058357142857	890.119981004455	1003.149670024054	524.425587327591	1030.617701075903	1425.582086654893	305.482822008476	1164.860943570360	1361.117489089352	443.177708362222	1118.302213250993	1440.212169383416	628.088186934709	1052.814830565374	1490.717759049803	457.483440984532	1133.322892272949	937.157154183560	602.733763513971	1076.149542825425	957.096055959211	333.690700052194	1131.746458236343	724.508975552986	573.445489443874	1037.554375818321	627.592303470519	645.771028708355	1089.688769703844	564.791363177134	558.767874022032	1072.276824897823	480.192380054917	564.584155499123	1155.031250740017	768.114504817526	356.312127925835	1090.665732498320	638.419129885224	293.879664894073	1198.838300071368	580.043549333391	344.898262824735	1217.847931089611	511.687734073924	344.559455250858	1197.961352169796	438.070404409323	336.659245160765	1119.382859955761	312.414956926507	294.092292985805	1202.611246314201	208.471205227331	345.476813355966	1035.937391847678	395.103877549137	575.182308470740	959.945113626706	299.399163072484	645.259397265784	982.963333529761	201.337435521604	576.633093918611	833.477764031380	42.771158699662	555.974874040049	1005.912600929830	95.728055977225	582.324707046074	919.978609767227	36.834049868835	627.018949947699	1127.604369262116	42.789661658543	605.407356059528	1107.346808620307	41.502473399721	393.727346900564	1175.120349362188	39.172103294801	308.405591698431	1255.403187451664	107.001170676747	325.077416829745	1383.072144478396	62.559555159303	289.218536578127	912.116961785808	1085.038708545753	227.936783387800	942.934768220520	824.282902388250	217.889641894694	1253.451451325536	1122.476789909245	735.720016337934	1487.960003818992	1147.262379636163	644.021712579334	
73	11.071714285714	891.154147300964	1002.183848967708	521.856196813040	1030.606082371109	1424.475533610815	302.540339808134	1164.708596623221	1360.890010586702	440.761318861869	1117.133207502669	1440.006838049241	625.456955445509	1052.359087829667	1490.019387747096	454.377995978069	1134.417586528454	936.668385994353	601.084108070187	1077.851467818577	956.211985022413	332.013445958937	1132.639818581718	723.688485691176	572.172095538742	1037.501308135161	627.028139924354	644.114253495953	1089.631418309179	563.767337602788	557.501150901610	1071.629016651789	478.843159785344	563.180749041326	1155.947671450030	765.665328345622	354.452177035150	1089.183509449631	636.509460147750	293.849806811667	1197.213799738397	577.476687576982	344.520522975287	1214.725189700467	508.545324542340	344.973773152887	1194.395497225085	434.916109378308	337.149735833869	1114.307795840476	309.905142205875	295.262674330897	1196.218388926945	205.328943288445	347.319982114286	1034.231844547864	394.186243691314	573.986441175795	957.175783505266	299.560632414517	644.425678122519	978.983041830248	201.015395223035	576.172341685583	828.171923880395	43.178894846675	556.095826590019	1000.758333148337	95.852585467215	582.499600869598	914.682484370921	36.947388063418	627.032797921444	1122.282621042116	42.463277646796	605.514645312740	1098.297385474173	40.255885174889	396.177204759790	1165.575225267097	37.671203912007	310.323564652991	1247.279824585631	103.601289475561	327.494631349073	1374.226065570819	57.083477422396	290.354120647671	914.923030640820	1083.002254338079	224.103117509910	951.190819238516	822.881456912615	212.664858692906	1250.286787197139	1120.788998745015	733.055328153036	1485.664537469945	1137.503798428509	640.649257610401	
74	11.085071428571	892.111602658679	1001.447910120183	519.268930179015	1030.787112360586	1423.516475994445	299.467513301130	1164.696356360434	1360.739303425124	438.228448418741	1116.179927287707	1439.966610451202	622.687842162574	1052.118213722406	1489.497285386439	451.115605733304	1135.411689781548	936.308880094272	599.281802287086	1079.389033576609	955.597410463992	330.184600281596	1133.644585432443	723.021603462181	570.747300744806	1037.705826723647	626.539250120859	642.305237541104	1089.920903426787	562.857458060457	556.066193806633	1071.454916718240	477.467545888324	561.683876066385	1156.721574536703	763.645204173754	352.686409529960	1088.141960477174	635.196499146944	293.372047890326	1195.751102942577	575.460364409037	344.158631556941	1211.947699030235	506.066805931958	345.220809955602	1191.294919991571	432.403303063406	337.367262816502	1110.094880250955	307.970979160299	295.636754608180	1190.591047285832	202.842997145762	348.659496447321	1032.858844366564	393.315399572322	572.694097317573	954.627103458633	299.892835695567	643.486237444037	975.174780487480	200.824274128073	575.695794208275	822.898241919736	43.867400794926	556.245067971649	995.696845501163	96.018839598685	582.661340103738	909.431051512584	37.182632746963	627.044262175890	1117.000891359924	42.074484287956	605.634487077716	1090.191584074407	39.285743630173	397.791217505994	1157.214754798194	36.635365362548	311.612854543971	1239.989817966862	101.035652936780	329.427238151759	1366.434380110060	52.944692716929	291.417460306406	918.228473462915	1081.031675993243	220.059718698060	959.815748755925	821.653335188476	207.270056198322	1246.664516736862	1119.131342657246	730.676564106107	1482.701933599013	1126.365838901346	637.576566831484	
75	11.098428571429	892.959217506510	1000.997401891889	516.687511814593	1031.152017279133	1422.765227077454	296.306395890192	1164.828848764516	1360.681270911353	435.589333207003	1115.511970570873	1440.125734814899	619.793314569651	1052.120928110828	1489.192692471777	447.739855954517	1136.241129441772	936.129974766156	597.317874842188	1080.696201651779	955.283072466886	328.179375286066	1134.674386830506	722.562830333506	569.153311213500	1038.161264117923	626.157498362508	640.362358531937	1090.573472359318	562.115198114702	554.470388605052	1071.820262247635	476.087885250540	560.157827166222	1157.354512379724	762.195629142508	351.007560812458	1087.562414540825	634.512045844802	292.428722098330	1194.477075480193	574.042635084309	343.701293546237	1209.523057890626	504.279828548769	345.207495099389	1188.653832889564	430.555660657156	337.266827416503	1106.689505116931	306.643665798490	295.242449209305	1185.696323499234	201.041053990114	349.471144521895	1031.859529837075	392.523076928374	571.348841213173	952.316334663380	300.442237338286	642.468258319381	971.569236110678	200.808449003708	575.228704264111	817.668224846470	44.917695144386	556.418986262079	990.749511877787	96.222824073947	582.791297431531	904.232987342721	37.582253361875	627.053801993404	1111.765278161494	41.630855988917	605.760878735899	1083.062260693176	38.606284581909	398.658959796158	1150.019610226897	36.015279154830	312.325483140776	1233.514041833172	99.300250512491	330.812327322723	1359.658488379138	50.143229015409	292.305297434834	922.052934710144	1079.199130085634	215.817537983563	968.795361554486	820.664279095346	201.747354342763	1242.649036287390	1117.573110849130	728.572510709301	1478.962468444299	1113.911222725578	634.817659404308	
